<svg xmlns="http://www.w3.org/2000/svg" viewBox="0 0 84.67 84.67"><path fill="#b4b4b4" fill-rule="evenodd" stroke="#000" stroke-width=".26" d="m42.33 48.95-5.73-3.3v-6.62l5.73-3.31 5.73 3.3v6.62zm11.65 0-5.73-3.3v-6.62l5.73-3.31 5.72 3.3v6.62zm11.64 0-5.73-3.3v-6.62l5.73-3.31 5.73 3.3v6.62zm11.64 0-5.73-3.3v-6.62l5.73-3.31 5.73 3.3v6.62zm-69.86 0-5.72-3.3v-6.62l5.73-3.31 5.73 3.3v6.62zm11.65 0-5.73-3.3v-6.62l5.73-3.31 5.73 3.3v6.62zm11.65 0-5.74-3.3v-6.62l5.73-3.31 5.73 3.3v6.62zM48.15 38.9l-5.72-3.31v-6.62l5.72-3.3 5.73 3.3v6.62zm11.65 0-5.73-3.31v-6.62l5.73-3.3 5.72 3.3v6.62zm11.64 0-5.73-3.31v-6.62l5.73-3.3 5.73 3.3v6.62zm-58.21 0L7.5 35.58v-6.62l5.73-3.3 5.73 3.3v6.62zm11.64 0-5.73-3.31v-6.62l5.73-3.3 5.73 3.3v6.62zm11.64 0-5.73-3.31v-6.62l5.73-3.3 5.73 3.3v6.62zm17.46-10.06-5.72-3.3v-6.62l5.72-3.31 5.73 3.3v6.62zm11.65 0-5.73-3.3v-6.62l5.73-3.31 5.73 3.3v6.62zm-46.57 0-5.73-3.3v-6.62l5.73-3.31 5.73 3.3v6.62zm11.65 0-5.74-3.3v-6.62l5.73-3.31 5.73 3.3v6.62zm11.63 0-5.73-3.3v-6.62l5.73-3.31 5.73 3.3v6.62zM59.8 18.79l-5.73-3.31V8.86l5.73-3.3 5.72 3.3v6.62zm-34.93 0-5.73-3.31V8.86l5.73-3.3 5.73 3.3v6.62zm11.64 0-5.73-3.31V8.86l5.73-3.3 5.73 3.3v6.62zm11.64 0-5.72-3.31V8.86l5.72-3.3 5.73 3.3v6.62zm0 40.21-5.72-3.3v-6.62l5.72-3.3 5.73 3.3v6.61zm11.65 0-5.73-3.3v-6.62l5.73-3.3 5.72 3.3v6.61zm11.64 0-5.73-3.3v-6.62l5.73-3.3 5.73 3.3v6.61zm-58.21 0L7.5 55.7v-6.62l5.73-3.3 5.73 3.3v6.61zm11.64 0-5.73-3.3v-6.62l5.73-3.3 5.73 3.3v6.61zm11.64 0-5.73-3.3v-6.62l5.73-3.3 5.73 3.3v6.61zm17.47 10.06-5.73-3.31v-6.62l5.73-3.3 5.72 3.3v6.62zm11.64 0-5.73-3.31v-6.62l5.73-3.3 5.73 3.3v6.62zm-46.57 0-5.73-3.31v-6.62l5.73-3.3 5.73 3.3v6.62zm11.65 0-5.74-3.31v-6.62l5.73-3.3 5.73 3.3v6.62zm11.63 0-5.73-3.31v-6.62l5.73-3.3 5.73 3.3v6.62zM59.8 79.11l-5.73-3.3v-6.62l5.73-3.3 5.72 3.3v6.61zm-34.93 0-5.73-3.3v-6.62l5.73-3.3 5.73 3.3v6.61zm11.64 0-5.73-3.3v-6.62l5.73-3.3 5.73 3.3v6.61zm11.64 0-5.72-3.3v-6.62l5.72-3.3 5.73 3.3v6.61z"/><path fill="none" stroke="#000" stroke-linecap="round" stroke-width=".79" d="M38.9 42.33H16.4m2.65-2.64-2.65 2.64 2.65 2.65"/><path d="M26.8 14.38q0 .04-.02.07l-.03.07-.07.1-.06.06q-.03.02-.07.02l-.08.01h-.12l-.05.01q-.03 0-.04-.03v-.11l-.01-.05q-.01-.02-.04-.02-.05 0-.08.03l-.06.06-.05.07q-.03.03-.1.03l-.13-.02q-.07-.03-.14-.03l-.28-.02h-.28l-.28-.02-.28-.05h-.06l-.06-.01q-.14 0-.27.03-.14.03-.3.03l-.24.02q-.1.02-.22.02l-.13-.02-.14-.06q-.07-.04-.12-.1-.04-.05-.04-.1t.04-.1l.1-.1.12-.08.1-.07.42.06q.2.04.42.04.13 0 .2-.03.09-.04.13-.1.04-.05.05-.13l.01-.17v-.21q0-.54.03-1.07t.03-1.07l-.02-.53q0-.26-.05-.52l-.09-.02-.1-.01h-.02l-.03-.01h-.03l-.16.02-.14.02h-.04l-.02-.02-.03-.02h-.04l-.23.02q-.1.02-.23.02l-.16-.02q-.08-.03-.15-.08.03-.05.03-.12l-.01-.11-.02-.11h.06l.1-.01.09-.06q.04-.04.09-.06.05-.03.1-.03.1 0 .2.03t.2.03q.07 0 .1-.02l.08-.02q.03 0 .05.02.02.02.06.02.06 0 .11-.02l.11-.04.12-.05.12-.02.17.02q.08.02.17.02h.08v.05l.01.08.04.08.03.1q.02.06.02.15v.3l.01.31-.01.16q-.01.07-.05.14.04.02.04.06l.01.08v.13l.05.07v.04l-.01.08-.03.06-.04.07v.07l.01.16q.03.08.03.17l-.02.22-.03.21-.03.22-.01.22-.01.04q-.01.02-.03.02h-.02l.01.17.03.18.03.18.01.18v.1q0 .18.12.26.12.1.3.1.11 0 .17-.03l.1-.05.04-.05q.02-.02.05-.02l.2.02.21.03h.1q.06 0 .1.02.05 0 .1.03.04.02.07.07l.08.11q.04.06.04.13z" aria-label="1"/><path d="m61.53 13.77-.02.13q-.02.07-.07.12l-.03.04-.03.07-.02.05-.02.03h-.03q-.01-.02-.03-.02l-.02.02q-.04.05-.12.1l-.16.09-.18.06-.15.02h-.09l-.05-.03-.04-.03-.04-.02q-.04 0-.08.03l-.07.02-.02-.01q0-.02-.04-.04l-.13-.06-.14-.08-.14-.08q-.06-.03-.1-.03-.02 0-.07-.05l-.13-.1-.16-.1q-.08-.04-.17-.04-.1 0-.15.06-.05.05-.08.14h-.03q-.05 0-.08.02-.04.03-.06.07l-.03.1-.01.08v.12l.02.12v.08l-.1-.01h-.08l-.09.01q-.07 0-.1-.04l-.05-.1-.07-.13-.1-.13-.07-.13q-.03-.07-.03-.14v-.17l.01-.17q0-.08.03-.13l.08-.1q.05-.06.08-.13.04-.07.04-.17l.01-.05.04-.03.09-.11.12-.18.13-.2q.08-.1.16-.16l.03-.03H59l.05-.01q.02-.01.02-.03l.02-.03q0-.02.03-.04t.09-.02q.06 0 .1-.02l.07-.03.06-.05.06-.04.08-.03.25-.1q.13-.05.24-.13.12-.07.22-.17t.16-.22q0-.02.03-.05l.04-.05.04-.06.02-.05v-.04l-.02-.04q0-.03.02-.04l.04-.02q.03-.01.05-.04.03-.03.04-.07l.02-.08v-.15l-.02-.08-.04-.07q-.02-.03-.05-.04l-.04-.02-.01-.02v-.03l.01-.02q0-.03-.03-.05-.02-.03-.06-.05l-.07-.05-.05-.06q-.01-.03-.08-.07l-.14-.07-.15-.06-.1-.03q-.12 0-.24.04-.1.05-.22.07l-.22.03q-.14.02-.27.06-.13.03-.23.1-.09.08-.09.2 0 .06.04.12l.08.1.12.1q.06.04.1.1.06.05.1.11.03.06.03.13 0 .1-.06.16-.05.06-.14.1-.08.04-.17.06l-.16.02q-.09 0-.16-.02l-.07-.02-.05-.01-.02-.03-.01-.08q-.01-.06-.04-.1l-.05-.1-.03-.1q-.02-.05-.02-.11 0-.08.04-.2l.1-.23q.05-.13.12-.23l.13-.16.04-.05.02-.06.04-.04q.03-.02.08-.02h.06l.08-.01q.03-.02.05-.07 0-.03.04-.04l.09-.03h.09l.07-.01q.07 0 .13-.02l.13-.04.13-.03.14-.02h.05q.29.02.48.05.2.03.34.12.15.08.27.23.12.15.27.38l.06.14q.02.06.09.1l-.06.19v.18l-.03.11q0 .05-.02.09l-.04.08-.05.1-.02.06-.02.05q0 .02-.03.04l-.05.04q-.05.03-.06.06l-.03.06-.03.06q-.01.03-.05.05-.09.03-.16.09l-.15.11q-.06.06-.14.11-.07.05-.16.07l-.18.07-.17.1q-.08.06-.17.1-.08.05-.17.08-.04 0-.07.03l-.04.04-.03.05-.04.06-.08.04-.06.02q-.04 0-.07.03-.04.02-.08.07-.02.04-.06.05l-.06.04-.06.04q-.02.02-.02.06l-.01.06-.03.04-.04.05-.01.04v.04l.03.06.06.04q.04.02.1.02.07 0 .13-.02h.12l.1.01.1.03.08.04.09.01q.09 0 .11-.1.02.01.02.05l.01.06.02.06q0 .03.02.03l.03-.04q.01-.04.05-.04.02 0 .03.02l.04.05.06.04q.03.02.07.02.07 0 .15.06l.17.11q.08.07.17.12.09.05.17.05.09 0 .15-.03l.1-.1q.06-.06.1-.13l.08-.13.1-.1q.06-.04.15-.04.13 0 .16.07.05.06.05.18zm-1.06-3.88h-.15l.02.01-.01.03-.01-.01v-.03.04l.02.1q.02.04.08.05l.03-.08.02-.08z" aria-label="2"/><path d="M78.91 43.3v.16q-.01.05-.04.07l-.06.04q-.04.01-.11.06.07.1.07.2 0 .13-.07.23t-.17.16q-.08.07-.13.16l-.1.19q-.13 0-.24.05-.11.05-.22.13-.06.04-.11.05l-.12.02-.13-.01h-.12l-.22.02q-.1.04-.22.04l-.14-.02-.17-.04-.18-.04-.13-.06q-.11-.04-.2-.12-.1-.08-.2-.12-.05-.13-.12-.25-.07-.11-.17-.2l.03-.1v-.11l-.01-.2-.02-.2q0-.18.1-.32h.02q.06 0 .11-.02l.12-.02q.08 0 .16.03.09.02.14.08.07.04.1.12.04.07.04.17v.09l-.04.1q-.01.06-.04.1-.03.04-.08.04l-.05-.01-.04-.04v.12l.03.15.05.12q.04.06.1.06h.1l.22.02q.11.02.23.02l.2.02h.18q.13 0 .24-.03.11-.03.2-.09.1-.06.19-.14l.18-.15q.03-.04.03-.08v-.07q0-.04.04-.1l.09-.11.09-.14q.04-.08.04-.18 0-.08-.03-.16l-.02-.16q0-.07-.03-.13l-.07-.1-.07-.12q-.04-.05-.04-.12v-.02l.01-.03-.2-.07-.2-.08-.21-.07q-.1-.04-.15-.04-.13 0-.26.03t-.26.03l.03-.02.06-.03.06-.04q.03-.01.03-.04t-.05-.05l-.07-.02-.06.02-.07.03-.06.04q-.03.02-.07.02l-.05-.02-.04-.04V42q0 .05.03.08.04.03.1.03h.02q-.04.06-.1.11-.04.05-.12.05h-.12l-.1-.01q0-.13.07-.27.07-.15.17-.28l.2-.24.22-.2.07-.04.05-.04.04-.04.04-.07q.03-.07.08-.12l.1-.1.1-.11q.05-.05.08-.12l.1-.03.09-.04.09-.05q.04-.02.06-.07 0-.13-.09-.17-.09-.04-.2-.04-.07 0-.15.03-.07.03-.14.03-.06 0-.1-.02l-.11-.02-.06.01q-.02.02-.05.02l-.05-.01-.05-.01-.02.02-.03.02h-.15l-.07-.01q-.12 0-.2.09-.08.08-.08.2v.11l.02.11-.02.11-.05.1-.08.08q-.05.03-.1.03-.07 0-.12-.03l-.1-.06v-.08l.04-.06.04-.06.01-.06q0-.04-.02-.07-.03-.03-.03-.07l.02-.09q.02-.04.02-.1l-.02-.12q-.03-.05-.03-.12l.03-.06.06-.1.07-.1q.03-.03.05-.03h.07l.06.02q.1 0 .19-.02l.2-.02h.31q.18 0 .34-.03.16-.03.33-.03h.22l.25-.01q.12-.02.25-.02h.12l.11.05-.01.08.01.05.03.05.02.04.02.04q0 .03-.05.1l-.1.16-.13.16-.08.14q-.01.04-.05.06-.03.03-.07.04l-.08.03q-.04.01-.07.04l-.12.1-.12.17-.1.18q-.04.09-.04.14 0 .04.03.08l.1.08.1.07.08.06q.03.03.07.04H78l.07.02.07.05.06.07.07.05.05.07q.03.04.03.09h.14v.1q.1.06.11.1l.02.07v.03q0 .03.02.04.08.08.1.15.04.07.05.14l.02.14q.01.08.05.17l.03.13.01.12zm-1.97-3.2q0-.03-.02-.04-.01-.02-.04-.02t-.04.04v.07-.02.01h.06q.04-.01.04-.05z" aria-label="3"/><path d="M61.78 74.85q-.03 0-.05-.02l-.05-.01h-.03l-.01.03q-.02.02-.09.03l-.15.03H61l-.14-.06q-.04.03-.11.03h-.07q-.06 0-.1.03l-.08.02h-.06l-.05-.03-.05-.04h-.08l-.03.04-.02.04-.01.03q-.01-.02-.05-.03h-.06l-.06-.01q-.02-.01-.03-.05h-.06q-.02-.01-.02-.03 0-.04.02-.06l.02-.07v-.04h-.04q-.04 0-.07.02l-.05.06-.04.07-.05.05q-.06 0-.11.02l-.12.02-.08-.02-.07-.04-.05-.06q-.03-.04-.03-.08 0-.05.03-.1l.05-.08q.08-.08.17-.1l.2-.03.18-.01q.1-.02.16-.08.07-.06.11-.19.05-.12.05-.36v-.12h-.15q-.19 0-.36-.02-.18-.03-.37-.03-.1 0-.19.02t-.19.02h-.19q-.1-.03-.19-.03l-.1.02q-.04 0-.08.03-.04 0-.07.02l-.06.01h-.12l-.12-.03-.1-.06q-.04-.04-.05-.1l-.04-.12q-.03-.07-.03-.13l.02-.04.03-.07.03-.1.01-.1.01-.07.05-.1.05-.09q.02-.04.05-.06l.04-.03.06-.02.05-.02q.02 0 .05-.03l.04-.05.04-.07.04-.06q.02-.04.05-.06l.05-.03q.04-.02.04-.05l-.01-.06-.01-.05v-.06q.08-.02.13-.06.05-.04.09-.1l.07-.1.07-.13q.08-.11.18-.21l.2-.19q.06-.05.1-.11l.07-.13.09-.11q.05-.06.13-.09l-.01-.06q0-.05.03-.08l.07-.07q.07-.05.1-.1l.07-.1.1-.09q.04-.04.13-.09.06-.03.07-.06l.02-.06q0-.03.02-.05.02-.02.1-.02.09 0 .16.02.08.02.14.07.06.04.1.1.03.07.03.16l-.02.16-.02.16.01.11.02.12q0 .11-.09.18.02.02.04.11l.05.2.04.22.02.13q0 .06-.03.12l-.02.11q0 .07.02.13l.01.13-.01.23-.01.22v.1l.01.11.05.1q.03.04.1.05l.2.05.22.02.2.03q.1 0 .16.03.02 0 .04.03l.03.06.01.08v.14h-.05l-.07.01-.05.03-.04.04-.04.01-.04-.07-.05-.07q-.04.02-.05.06v.07l-.02.06q0 .02-.05.02h-.13l-.12-.02q-.17 0-.25.08-.08.07-.08.23 0 .1.03.18l.08.15.07.1.03.05q.04-.02.1-.02h.1l.09.01q.05 0 .1-.03.04-.03.07-.03.06 0 .11.02l.12.03.02.04.04.03.05.03q.02.02.02.05v.11l.01.08.03.08zm-1.36-3.65q0-.03-.04-.06l-.04-.07-.04-.09q-.01-.05-.04-.08-.02-.05-.05-.07-.04-.03-.1-.03v.04q-.07.04-.12.1l-.09.12-.08.11q-.05.05-.11.07v.03q0 .07-.02.12l-.06.1-.09.08-.1.06-.06.06-.04.07-.04.07q-.02.03-.06.05-.05.02-.06.04l-.02.03V72l-.02.06-.05.1-.06.09q-.02.06-.06.1l-.07.07-.08.07-.07.09-.06.08-.07.14-.07.13-.03.09q0 .03.03.05l.06.04.1.01h.59q.07.02.11.07l.04.05q.02.02.05.02h.03l.04-.03.07-.03.14-.01.07-.01.1-.04.11-.04.1-.03.1-.36q.06-.18.06-.37l-.01-.17-.01-.18v-.1l.03-.09.02-.09.02-.1-.02-.09q-.02-.04-.02-.1l.01-.05.03-.06.03-.06.02-.04zm.19 2.83q-.02-.03-.05-.04h-.06l-.04.01q0 .03.02.05l.02.04.06-.01q.05-.01.05-.05zm-1.78-1.66q0-.02-.02-.03-.01-.02-.03-.02-.04 0-.05.04v.06h.06q.04-.01.04-.05z" aria-label="4"/><path d="m26.8 74.7-.02.08-.03.07-.07.1q-.03.04-.06.05l-.07.03h-.2q-.02.02-.05.02-.03 0-.04-.03v-.12l-.01-.04q-.01-.02-.04-.02-.05 0-.08.03l-.06.06-.05.06q-.03.03-.1.03L25.8 75l-.14-.03-.28-.01h-.28l-.28-.03-.28-.04-.06-.01h-.06q-.14 0-.27.02-.14.03-.3.03-.12 0-.24.03-.1.02-.22.02l-.13-.02-.14-.06q-.07-.04-.12-.1-.04-.05-.04-.11 0-.05.04-.1l.1-.1.12-.08.1-.06.42.06q.2.03.42.03.13 0 .2-.03.09-.03.13-.09.04-.06.05-.13l.01-.17v-.22q0-.53.03-1.06.03-.54.03-1.07 0-.27-.02-.53 0-.26-.05-.53l-.09-.02h-.13q0-.02-.03-.02h-.03l-.16.02-.14.02h-.04l-.02-.02-.03-.02h-.04l-.23.02q-.1.02-.23.02l-.16-.02q-.08-.02-.15-.08.03-.05.03-.12l-.01-.1-.02-.12.06.01.1-.02.09-.06.09-.06.1-.02q.1 0 .2.03t.2.03q.07 0 .1-.02.05-.03.08-.03t.05.02q.02.02.06.02.06 0 .11-.02l.11-.04.12-.04.12-.02.17.02q.08.02.17.02l.08-.01v.05l.01.09.04.08.03.1q.02.06.02.15v.3l.01.3-.01.16q-.01.07-.05.14.04.03.04.07l.01.07v.14l.05.07v.03l-.01.08-.03.07-.04.06v.07l.01.16q.03.08.03.17l-.02.22-.03.22-.03.22-.01.21-.01.05-.03.01h-.02l.01.18.03.18.03.17.01.18v.1q0 .18.12.27.12.09.3.09.11 0 .17-.03l.1-.05.04-.05q.02-.02.05-.02l.2.02.21.04h.1l.1.01.1.03q.04.02.07.07l.08.12q.04.06.04.12z" aria-label="1"/><path d="m9.17 43.2-.06.2-.05.22-.04.21q-.01.1-.05.2-.1.06-.19.15l-.17.2-.18.16q-.09.08-.2.08-.12.01-.22.05l-.2.08-.2.07q-.1.04-.22.04h-.12l-.18-.02-.16-.05q-.07-.02-.1-.07 0-.04-.04-.05l-.07-.02h-.08q-.04 0-.07-.02-.05-.03-.08-.07l-.07-.08-.07-.08-.08-.07q-.04-.03-.1-.04l-.1-.06-.02-.03-.01-.05-.02-.04q-.01-.02-.04-.02v-.04q0-.07.03-.13.03-.07.03-.14 0-.04-.03-.08l-.05-.07-.06-.08-.04-.08-.05-.14q-.02-.08-.08-.13-.05-.05-.05-.13v-.1l.01-.1q0-.05-.02-.09-.02-.04-.02-.09 0-.03.02-.05l.06-.03-.01-.05-.03-.03-.03-.01-.01-.02.05-.06q.03-.04.03-.07 0-.04-.03-.07-.03-.03-.03-.07v-.01h.02q.02 0 .03-.02l.01-.03.06-.39.08-.39v-.08l.01-.09v-.08q.06-.05.12-.16l.11-.2.11-.2q.06-.08.1-.08h.07l.08.02h.04q.04 0 .04-.02l-.03-.03-.04-.03-.04-.02-.02-.04.02-.04.04-.04.04-.04.04-.02q.08-.08.15-.12l.12-.07.15-.05.18-.04q.03 0 .03-.02l.01-.03q0-.02.02-.03l.08-.01q.06 0 .1-.03.05-.03.11-.03h.39l.1.03.1.03.09.03h.1q.04 0 .05.02v.04l.02.04q.01.02.06.02h.04L8.5 40l.04.01.02.04.01.04.02.01h.06l.04.01.01.04.01.05q0 .03.02.04.05.07.1.11l.06.1q.04.04.05.1l.01.16q0 .09-.02.17-.02.08-.07.16l-.08.14-.1.15q-.06-.04-.14-.04l-.1.01h-.11q-.08 0-.14-.03l-.06-.1-.06-.1-.05-.1-.01-.12.01-.1.03-.08.03-.09q.02-.04.02-.1 0-.08-.1-.08l-.18-.03-.18-.02q-.1 0-.19.04 0-.08-.03-.11t-.07-.04h-.07q-.04 0-.07-.02l.02.02.03.03.02.02.02.02q0 .02-.03.02l-.07.01-.07.03q-.03.02-.03.06v.06h-.09l-.05.03q-.03 0-.05.02h-.1l-.04.03v.13l-.01.06-.04.04q-.03 0-.05.02l-.05.03q-.11.1-.2.22l-.13.28q-.06.15-.09.3l-.02.3q0 .06.02.1l.07.04.1.01q.05 0 .1.03l.08-.08.05-.08.06-.08q.04-.03.11-.05.17-.06.36-.1.2-.04.37-.04.14 0 .27.04.13.03.22.14h.03q.07 0 .15.03l.2.08.16.1.12.11q.01.03.04.03h.06q.03 0 .03.02v.04q0 .06.04.1l.1.08.1.1q.04.05.04.12 0 .09-.03.17l-.02.16q0 .08.04.12.05.05.12.07zm-.66.02q0-.1-.03-.2l-.07-.2-.11-.2q-.07-.09-.14-.14l-.14-.09-.18-.1-.19-.09q-.09-.03-.15-.03l-.1.01-.1.02-.1-.01-.1-.01q-.05 0-.09.02-.03.02-.05.07h-.34v.06q0 .08-.06.16l-.13.18-.13.22q-.06.11-.06.26l.01.1.03.08.03.09.01.1v.1l.03.03.04.01q.02 0 .07.05l.05.08.05.08.06.07.1.05.04.02.07.05.07.06.05.04q.01.03.09.04l.17.03.19.01h.12q.14 0 .21-.02.08-.03.13-.08l.1-.1q.06-.06.15-.11.1-.05.16-.13.08-.08.13-.18l.08-.2q.03-.1.03-.2z" aria-label="6"/><path fill="none" stroke="#000" stroke-linecap="round" stroke-width=".79" d="M40.61 39.35 29.37 19.88m3.61.97-3.61-.97-.97 3.61M44.05 39.35 55.3 19.88m.97 3.62-.97-3.62-3.62.97M45.77 42.33h22.5m-2.65 2.65 2.64-2.65-2.64-2.64M44.05 45.31 55.3 64.8m-3.62-.98 3.62.97.97-3.62M40.61 45.31 29.37 64.8m-.97-3.63.97 3.62 3.61-.97"/></svg>